<?xml version="1.0" encoding="utf-8"?>
<!-- Generator: Adobe Illustrator 24.3.0, SVG Export Plug-In . SVG Version: 6.00 Build 0)  -->
<svg version="1.1" id="Layer_1" xmlns="http://www.w3.org/2000/svg" xmlns:xlink="http://www.w3.org/1999/xlink" x="0px" y="0px"
	 viewBox="0 0 512 512" style="enable-background:new 0 0 512 512;" xml:space="preserve">
<style type="text/css">
	.st0{fill:#5CA336;}
</style>
<g id="XMLID_1_">
	<g id="XMLID_12_">
		<path id="XMLID_10_" class="st0" d="M277.14,296.59c-3.87,2.35-8.58,2.63-12.87,2.08c-2.49-0.42-5.12-1.25-6.64-3.32
			c-2.35-3.04-2.77-6.92-3.04-10.65c-0.14-3.32-0.14-6.64-0.14-9.96c0-11.62,0-23.39,0-35.01c6.92,0,13.84,0,20.76,0
			c0.14-1.38,0-2.77,0.14-4.29c0-5.95,0-11.9,0-17.85c-6.78-0.14-13.56,0-20.48-0.14l-0.14-0.14c-0.14-4.57,0.14-9.13,0.28-13.56
			c0.42-2.35,0.14-4.84,0.55-7.2c0-2.21,0.42-4.29,0.28-6.5c-6.5,0.14-13.01-0.14-19.37,0.14c-0.55,4.43-1.38,8.86-2.77,13.15
			c-1.52,4.57-3.74,8.99-7.47,12.32c-4.29,3.87-9.96,5.67-15.5,6.64c-0.14,5.81,0.14,11.62,0,17.44c3.87,0,7.75,0,11.62,0
			c0,3.18,0,6.5-0.14,9.69c0,6.92-0.14,13.7-0.14,20.62c-0.14,2.49-0.14,4.98-0.14,7.61c0,6.64-0.42,13.42,0.69,20.06
			c0.83,5.12,2.77,10.24,6.09,14.11c3.46,4.01,8.3,6.64,13.28,8.03c5.95,1.66,12.04,1.94,18.13,1.66c2.21-0.28,4.29,0,6.5-0.42
			c4.01-0.42,7.89-0.97,11.76-1.94c-0.28-5.53-0.69-11.07-0.97-16.6C277.41,300.74,277.55,298.67,277.14,296.59z"/>
		<path id="XMLID_17_" class="st0" d="M197.43,227.41c-0.83-1.11-1.66-2.21-2.77-3.04c-3.87-3.6-8.72-5.81-13.84-7.33
			c-7.89-2.35-16.05-2.63-24.22-2.49c-6.78,0.28-13.56,1.11-19.93,3.32c-5.26,1.66-10.1,4.29-14.25,8.03
			c-1.66,1.8-3.46,3.46-4.98,5.53c-5.67,7.89-8.3,17.57-9.27,27.12c-1.52,0-2.91,0-4.43-0.28c-3.32-0.14-6.64-0.14-9.82-0.14
			c-1.38,0-2.91,0.14-4.29-0.14c0-2.08,0.28-4.01,0.14-6.09c0-5.67-0.69-11.35-2.35-16.74c-1.8-5.4-4.84-10.38-9.55-13.7
			c-5.95-4.29-13.42-5.81-20.62-6.64c-0.97-0.14-1.94,0.14-2.77,0c0.14-0.14,0.28-0.28,0.42-0.42c-1.66,0.14-3.18,0.14-4.84-0.14
			c-0.69,0.14-1.25,0-1.94,0c-3.6-0.28-7.2,0.28-10.65,0.28c-1.25,0.14-2.35,0.28-3.6,0.28c-8.3,0.83-16.74,2.08-24.63,5.12
			c0,3.04,0.42,6.09,0.42,9.27c0.42,4.57,0.42,9.13,0.83,13.7c1.25-0.42,2.49-1.25,3.74-1.66c5.4-2.49,11.07-4.15,16.74-5.12
			c0.83-0.28,1.94,0,2.63-0.69l-0.14,0.28c2.91-0.28,5.95-0.55,8.86-0.14c3.87,0.28,8.03,1.25,10.79,4.29
			c2.91,2.77,3.74,6.92,4.15,10.79c0,2.35,0.42,4.7,0,7.06c-5.4,0-10.93-0.14-16.33,0.28c-4.57,0.42-9.13,0.97-13.7,2.08
			c-6.78,1.66-13.56,4.01-18.82,8.72c-4.01,3.46-6.78,8.3-7.75,13.56c-0.83,3.74-0.55,7.61-0.42,11.35
			c0.14,0.14,0.42,0.28,0.55,0.28c-0.14,0.28-0.28,0.42-0.28,0.69c0.69,6.64,3.18,13.42,8.3,18.13c4.7,4.29,10.79,6.5,16.88,7.61
			c6.23,1.25,12.59,1.38,18.82,1.25c2.91-0.28,5.81,0,8.58-0.42c7.47-0.28,14.81-1.11,22.28-1.25c-0.42-0.14-0.83-0.14-1.25-0.28
			c1.38,0.28,2.91,0.14,4.43,0c1.8,0,3.74,0,5.53-0.14c2.21-0.14,4.43,0,6.5-0.14c-1.66-10.65-1.38-21.45-1.52-32.1
			c0.14-3.18,0.28-6.37,0.28-9.55c0-0.69,0-1.52,0.28-2.21c1.8,0.14,3.6,0,5.4,0.14c4.43,0.14,8.72,0.14,13.15,0.42
			c0.69,7.89,2.21,15.77,5.81,22.83c2.08,4.15,4.7,7.89,8.16,10.93c3.87,3.46,8.44,6.09,13.28,7.75c5.67,2.08,11.62,3.04,17.71,3.6
			c7.47,0.55,15.08,0.69,22.69,0s15.36-1.94,22.55-4.98c0-1.94,0-3.87-0.28-5.81c-0.14-1.66,0-3.32-0.28-4.98
			c-0.28-1.8-0.14-3.6-0.28-5.53c-0.28-2.21,0-4.43-0.42-6.64c-8.86,4.98-19.1,7.61-29.2,7.33c-2.08-0.28-4.15-0.14-6.09-0.69
			c-3.87-0.83-7.75-2.21-11.07-4.7c-3.32-2.49-5.81-5.95-7.06-9.82c-0.97-2.91-1.38-6.09-1.25-9.13c2.35,0,4.7,0.14,7.2,0.14
			c2.91-0.14,5.81,0.42,8.72,0c5.4,0,10.65-0.42,16.05-1.38c4.98-0.83,9.82-2.21,14.39-4.57c4.29-2.21,8.16-5.4,10.79-9.55
			c3.46-5.53,4.43-12.32,4.01-18.82C202.83,236.95,201.03,231.56,197.43,227.41z M56.98,300.74c-5.53,1.11-11.35,1.52-16.74,0.28
			c-2.49-0.55-4.84-1.94-6.37-4.01c-1.66-2.35-2.08-5.4-1.94-8.16c-0.14-3.18,0.97-6.37,3.18-8.58c1.8-1.94,4.29-3.04,6.78-3.74
			c4.84-1.38,9.96-1.25,14.94-1.11c-0.14,3.6,0.14,7.33-0.14,10.93c0,1.94,0,3.87,0.14,5.81C56.85,294.93,57.12,297.84,56.98,300.74
			z M168.37,254.53c-3.04,2.91-7.2,3.87-11.35,4.43c-1.11,0-2.35,0.14-3.46,0.28c-2.49,0-5.12,0-7.61,0
			c-1.25-0.14-2.49-0.28-3.87-0.28c-0.14-2.49,0.14-4.84,0.42-7.33c0.69-4.7,1.94-9.69,5.4-13.28c2.77-3.04,6.92-4.43,10.93-4.57
			c3.18-0.14,6.64,0.42,9.27,2.35c2.49,1.8,3.74,4.84,3.87,7.89C172.11,247.75,171.14,251.9,168.37,254.53z"/>
		<path id="XMLID_14_" class="st0" d="M486.77,237.65c-1.25-4.98-3.46-9.69-6.92-13.42c-2.35-2.35-5.12-4.15-8.03-5.53
			c-5.95-2.77-12.45-3.6-18.96-4.15c-1.94,0-3.87,0-5.81-0.14c-2.08-0.42-4.01,0-6.09-0.14c-2.49,0.42-4.84,0-7.33,0.42
			c-2.21,0.14-4.57,0.42-6.78,0.69c-6.5,0.83-13.01,2.08-19.1,4.57c0.28,2.91,0.14,5.95,0.55,8.86c0,2.77,0.42,5.67,0.42,8.44
			c0.14,1.8,0.28,3.6,0.28,5.53c1.25-0.14,2.21-0.97,3.32-1.38c3.46-1.52,6.92-2.91,10.52-3.87c7.06-1.94,14.53-2.91,21.72-1.52
			c2.49,0.69,5.12,1.66,7.06,3.46s3.04,4.43,3.74,6.92c0.83,3.6,0.97,7.47,0.83,11.21c-5.53,0-11.21-0.14-16.74,0.28
			c-7.61,0.69-15.08,1.94-22.14,4.7c-4.15,1.66-8.03,3.87-11.21,7.06c-4.01,3.87-6.5,9.27-7.06,14.81
			c-0.14,1.94-0.42,3.87-0.28,5.81c0.14,1.52,0.14,2.91,0.28,4.43c0.55,3.87,1.38,7.61,3.18,11.07c2.08,4.29,5.67,7.89,9.82,10.24
			c5.4,3.04,11.62,4.43,17.85,5.12c1.66,0.28,3.46,0.14,5.12,0.42c7.33,0.28,14.67-0.28,22-0.69c2.08,0,4.29-0.42,6.37-0.42
			c2.35-0.28,4.7-0.28,7.06-0.55c3.46,0,6.78-0.42,10.1-0.42c2.77-0.28,5.53-0.14,8.44-0.14c0-0.69-0.14-1.52-0.28-2.21
			C486.91,300.33,488.71,245.53,486.77,237.65z M455.5,300.74c-2.91,0.42-5.81,0.97-8.86,0.97c-3.87,0-7.89-0.14-11.21-2.08
			c-2.35-1.25-4.01-3.74-4.57-6.37c-0.55-2.91-0.69-6.09,0.28-8.99c0.69-2.21,2.08-4.01,3.87-5.4c2.35-1.8,5.4-2.63,8.3-3.18
			c4.01-0.69,8.03-0.55,12.04-0.55c0,5.53,0,11.07,0,16.6c0.14,0,0.28,0,0.55-0.14l-0.42,0.55
			C455.5,295.21,455.5,297.98,455.5,300.74z"/>
		<path id="XMLID_3_" class="st0" d="M386.45,311.12c-0.14,0.55-0.14,1.25-0.28,1.8c-0.28-8.3-0.69-16.74-0.69-25.05
			c0-4.01-0.28-7.89-0.14-11.9c-0.14-7.61,0.14-15.36,0.14-22.97c0.14-6.64-0.55-13.56-3.04-19.79c-0.97-2.63-2.63-4.98-4.29-7.33
			c-3.18-3.87-7.61-6.5-12.32-8.16c-5.95-2.21-12.32-2.91-18.54-3.18c-4.29,0-8.58-0.14-12.87,0c-1.94,0.28-4.01,0.14-6.09,0.42
			c-10.24,0.83-20.48,2.21-30.86,2.49c-2.08,0.14-4.15,0-6.37,0.28c0,1.66,0,3.18,0.28,4.84c0.14,2.35,0.14,4.84,0.28,7.2
			c0.14,3.6,0,7.2,0.28,10.79c0.14,17.44,0.14,34.87,0,52.31c-0.28,3.6-0.14,7.2-0.28,10.79c0,5.26-0.42,10.52-0.55,15.91
			c11.48,0,22.97,0,34.45,0c-0.42-5.53-0.55-11.21-0.97-16.74c0-4.7-0.42-9.55-0.28-14.25c-0.14-2.77,0-5.4-0.28-8.16
			c0.14-5.95-0.14-11.9,0.14-17.71c0-5.4,0.14-10.65,0.14-16.05c0.14-3.04,0.14-6.09,0.28-9.13c0.55-0.14,1.11-0.42,1.66-0.55
			c4.01-1.11,8.3-1.66,12.45-1.52c2.91,0.28,5.95,0.69,8.44,2.49c1.94,1.25,3.18,3.32,4.01,5.4c0.97,2.63,1.38,5.4,1.66,8.16
			c0,2.08,0.28,4.29,0.28,6.37c0.14,8.3,0.14,16.6,0,24.91c0,3.18,0,6.37-0.28,9.55c0,3.32,0,6.78-0.14,10.1
			c0,1.8-0.28,3.46-0.28,5.26c0,3.87-0.42,7.61-0.42,11.48c11.48,0,22.97,0,34.32,0C386.45,316.66,386.17,313.89,386.45,311.12z"/>
	</g>
	<g id="XMLID_11_">
		<g id="XMLID_13_">
			<path id="XMLID_15_" class="st0" d="M498.95,218.41c0.69-0.14,1.8-0.28,2.77-0.28c1.52,0,2.49,0.28,3.18,0.83
				c0.55,0.55,0.83,1.25,0.83,2.08c0,1.38-0.97,2.35-2.08,2.77l0,0c0.83,0.28,1.38,1.11,1.66,2.21c0.42,1.52,0.55,2.63,0.83,3.04
				h-1.52c-0.14-0.28-0.42-1.25-0.69-2.63c-0.28-1.52-0.97-2.08-2.21-2.08h-1.38v4.7h-1.38V218.41z M500.33,223.39h1.38
				c1.52,0,2.49-0.83,2.49-2.08c0-1.38-0.97-2.08-2.49-2.08c-0.69,0-1.11,0-1.38,0.14V223.39z"/>
		</g>
		<path id="XMLID_20_" class="st0" d="M502.68,233.08c-5.26,0-9.41-4.29-9.41-9.41c0-5.12,4.29-9.41,9.41-9.41
			c5.26,0,9.41,4.29,9.41,9.41C512.09,228.79,507.8,233.08,502.68,233.08z M502.68,216.2c-4.15,0-7.47,3.32-7.47,7.47
			s3.32,7.47,7.47,7.47s7.47-3.32,7.47-7.47S506.7,216.2,502.68,216.2z"/>
	</g>
</g>
</svg>
