<?xml version="1.0" encoding="utf-8"?>
<!-- Generator: Adobe Illustrator 26.0.3, SVG Export Plug-In . SVG Version: 6.00 Build 0)  -->
<svg version="1.0" id="katman_1" xmlns="http://www.w3.org/2000/svg" xmlns:xlink="http://www.w3.org/1999/xlink" x="0px" y="0px"
	 viewBox="0 0 800 600" style="enable-background:new 0 0 800 600;" xml:space="preserve">
<style type="text/css">
	.st0{fill:#FF4F00;}
	.st1{fill:#00A6E4;}
	.st2{fill:#530077;}
	.st3{fill:#202322;}
</style>
<g>
	<path class="st0" d="M125.8,262.2c-12.8,0-23.2,10.5-23.2,23.5v6.1H149v-6.1C149,272.7,138.6,262.2,125.8,262.2"/>
	<path class="st1" d="M73.9,313.3c0,13,10.4,23.5,23.2,23.5h6v-47h-6C84.3,289.8,73.9,300.4,73.9,313.3"/>
	<polygon class="st2" points="102.6,336.9 149,336.9 149,289.8 102.6,289.8 	"/>
	<path class="st3" d="M315.6,289.8c-2.2,0-4.1,0-5.7,0c-1.6,0-2.7,0.7-3.4,2.3c-0.7,1.7-10.3,27.6-10.3,27.6s-9.6-26.9-9.9-27.9
		c-0.3-0.9-1.3-2-2.9-2s-3.6,0-6,0c-2.4,0-3.3,2.2-2.6,4.2c0.4,1.1,16.2,39,16.2,39c0.5,1.2,1.6,1.9,2.8,1.9h4.3
		c1.2,0,2.4-0.7,2.9-1.9c0,0,15.7-36.4,16.9-39.1C318.9,291.9,317.8,289.8,315.6,289.8z M395.1,331.9c-0.1-1.6-0.2-2.3-0.4-3.5
		c-0.4-2.3-1.9-2.9-3.3-2.4c-0.9,0.3-2.3,1.1-4.2,1.1c-1,0-2.3-0.2-3-1.3c-0.9-1.3-0.8-3.7-0.8-5.3l0.2-19.9c0,0,6.6,0,8.6,0
		c2,0,2.8-1.5,2.9-3s0-2.1,0-3.8c0-1.6-0.8-3-2.9-3c-2.1,0-8.5,0-8.5,0s0.1-9.1,0.1-10.5c0-1.4-0.7-3.5-3.7-2.8
		c-1.6,0.4-3.2,0.7-4.7,1.2c-1.5,0.5-2.8,1.5-2.8,3c0,1.5-0.1,9-0.1,9s-1.6,0-4.3,0s-2.9,1.8-3,3c0,1.2,0,1.6,0,3.6
		c0,2,0.9,3.1,3.1,3.1c2.2,0,4.2,0,4.2,0l-0.2,19.8c0,4.7-0.1,9.1,2.8,12.4c2.3,2.6,6.3,3.9,11,3.9c4.6,0,6.5-1.1,7.5-1.8
		C394.5,334.4,395.2,333.3,395.1,331.9z M244.8,303.2c1.6-1.8,4.5-3.7,8.1-3.7h0c3.1,0,5.6,1,7.5,3.1c2.3,2.5,2.7,6,2.7,6l-21,0
		C242.1,308.6,242.1,306.2,244.8,303.2z M268.5,296.4c-4.3-4.6-9.4-6.5-15.3-6.5c-6.3,0-11.8,2.1-16.1,6.7
		c-3.9,4.2-6.2,10.3-6.3,16.7c-0.1,6.7,2.3,12.8,6.6,17.1c4.1,4.1,9.9,6.5,16.6,6.5c10.3,0,16.3-5.2,16.9-5.8c1-1,1.7-2.4,1.1-3.9
		c-0.5-1.2-1.1-2.4-1.8-3.6c-0.8-1.3-2.4-2.3-4.8-0.5c-1,0.7-4.9,4.2-11.2,4.2h0c-3.9,0-6.9-1.1-9.2-3.4c-1.8-1.8-2.9-4.1-3.4-6.6
		l29.1,0c1.5,0,2.8-1.1,3.1-2.6C274,314.1,275.6,304,268.5,296.4z M354.1,313.4c-0.1,7.6-5,13.7-12.2,13.7
		c-7.3,0-12.1-6.1-12.1-13.7c0.1-7.6,4.9-13.7,12.3-13.7C349.5,299.6,354.2,305.8,354.1,313.4z M365.5,313.4
		c0.1-13.1-9.6-23.6-23.4-23.6c-13.8,0-23.7,10.6-23.8,23.6c-0.1,13.5,10,23.5,23.4,23.5C355.2,336.9,365.4,326.7,365.5,313.4z
		 M481.1,313.5c-0.1,7.6-4.9,13.7-12.5,13.7c-6.9,0-12.1-5.6-12.1-13.7c0.1-7.6,5-13.8,12.3-13.8
		C476.2,299.6,481.1,305.9,481.1,313.5z M492.2,332.9c0-1.7,0-56.2,0-58.6c0-2.4-1.8-3.1-3.1-2.8c-0.8,0.2-4.9,1.2-6,1.5
		c-1.4,0.4-2.1,1.8-2.2,3.3c0,0.8-0.2,20-0.2,20c-3.4-3.8-7.3-6.5-13.6-6.5c-13.5,0-22,10.9-22.2,23.6c-0.1,12.5,8.2,23.5,21.8,23.5
		c6.1,0,10.2-2.7,13.9-6.5c0,0,0,1,0,2.8c0,1.8,0.8,2.9,2.7,2.9c1.9,0,4,0,5.7,0C491.4,336.2,492.2,334.9,492.2,332.9z M410.7,303.2
		c1.6-1.8,4.5-3.7,8.1-3.7h0c3.1,0,5.6,1,7.5,3.1c2.3,2.5,2.7,6,2.7,6l-21,0C408.1,308.6,408.1,306.2,410.7,303.2z M434.5,296.4
		c-4.3-4.6-9.4-6.5-15.3-6.5c-6.3,0-11.8,2.1-16.1,6.7c-3.9,4.2-6.2,10.3-6.3,16.7c-0.1,6.7,2.3,12.8,6.6,17.1
		c4.1,4.1,9.9,6.5,16.6,6.5c10.3,0,16.3-5.2,17-5.8c1-1,1.7-2.4,1.1-3.9c-0.5-1.2-1.1-2.4-1.8-3.6c-0.8-1.3-2.4-2.3-4.8-0.5
		c-1,0.7-4.9,4.2-11.2,4.2c0,0,0,0,0,0c-3.9,0-6.9-1.1-9.2-3.4c-1.8-1.8-2.9-4.1-3.4-6.6l29.1,0c1.5,0,2.8-1.1,3.1-2.6
		C439.9,314.1,441.5,304,434.5,296.4z M206.3,321.9c-4.9,3.7-13,3.7-16.5,3.7h-6.6v-42.8l6.6,0c5.1,0,10.3,0.3,14.5,2.7
		c8.6,4.8,9.8,13.9,9.7,18.8C213.9,312.4,211.5,318,206.3,321.9z M209.5,275.4c-5.2-2.8-11-3.9-20.9-3.9l-4.5,0h-8.6
		c-2,0-3.5,1.7-3.5,3.7v58.1c0,2,1.6,3.7,3.5,3.7h14c4.4,0,14.7,0,22.8-5.6c8.3-5.8,12.9-15.4,13-27.1
		C225.3,299.5,224.3,283.4,209.5,275.4z M651,271.5c-0.3,0.1-2.7,0.6-3.1,0.6c-0.5,0.1-0.6,0.5-0.6,0.7c0,0.2,0,61.3,0,61.3
		c0,0.4,0.3,0.6,0.6,0.6c0.2,0,3,0,3.2,0c0.3,0,0.6-0.3,0.6-0.6c0,0,0-62,0-62.2C651.6,271.7,651.3,271.4,651,271.5z M606.5,323
		c-0.1,6.5,5.7,9.8,11.4,9.8c10.2,0,14.8-8.9,14.8-8.9l0.1-11c0,0-7.3-1-14.3-0.2C609.5,313.8,606.5,318.6,606.5,323z M605.7,295
		c1.2-0.7,7.1-3.7,14.2-3.7c14,0,17.4,9.6,17.3,16.2c0,0-0.1,12.4-0.1,15.5c0,2.7,0.1,10.1,0.1,11.9c0,0.3-0.2,0.6-0.6,0.6
		c-0.2,0-2.1,0-2.5,0c-0.5,0-0.5-0.4-0.5-0.6c0-0.2-0.5-6-0.5-6s-4.8,7.5-15.9,7.5c-8.7,0-15.3-5.9-15.2-13.8
		c0.1-7.6,5.4-12.5,15.8-13.8c6.7-0.8,15,0.2,15,0.2l0-1.9c0.1-6.1-3.9-12.2-13.5-12.2c-6.2,0-11.1,3.1-12.5,3.9
		c-0.3,0.2-0.7,0.1-0.7-0.2c-0.1-0.2-0.6-2.6-0.7-3C605.3,295.5,605.5,295.2,605.7,295z M575.3,295.1c4.5,0,7.9,1.7,10.5,4.5
		c4.3,4.8,4,10.9,4,11.7l-30,0c0.2-1.8,0.7-6.6,4.4-10.9C566.3,297.9,570.2,295.1,575.3,295.1z M589.2,297.5
		c-3.6-4.1-8.3-6.2-13.6-6.2c-5.9,0-10.5,2.1-14.6,6.6c-3.6,4-5.8,9.9-5.8,16.2c-0.1,6.7,2.2,12.5,6,16.5c3.9,4,8.9,6,15.2,6
		c8.7,0,14.8-4.9,16-6.1c0.2-0.1,0.3-0.4,0.2-0.8c-0.1-0.3-1.2-2.6-1.3-2.8c-0.1-0.2-0.5-0.4-0.8-0.1c-1.3,1.2-6.5,6-14,6
		c-5.2,0-9.2-1.7-12.2-4.9c-4.1-4.5-4.9-9.7-4.8-12.9c0,0,33.1,0,33.7,0c0.6,0,0.9-0.3,0.9-0.7C594.5,312.3,595,304.1,589.2,297.5z"
		/>
	<path class="st3" d="M682.1,330.7c-0.7,0.4-2.3,1.3-5,1.3c-2.2,0-4-0.8-5.1-2.2c-1.5-1.9-1.4-4.7-1.4-9.1v-25.2c0,0,11.8,0,11.9,0
		c0.2,0,0.5-0.2,0.5-0.5c0-0.3,0-2.6,0-2.8c0-0.2-0.2-0.5-0.5-0.5c-0.4,0-11.9,0-11.9,0s0-13.5,0-13.7c0-0.2-0.2-0.6-0.6-0.5
		c-0.4,0.1-3,0.6-3.2,0.7c-0.4,0.1-0.6,0.3-0.6,0.7c0,0.2,0,12.8,0,12.8s-7,0-7.3,0c-0.3,0-0.6,0.2-0.6,0.5c0,0.2,0,2.5,0,2.8
		c0,0.3,0.2,0.5,0.5,0.5h7.4l0,25.5c0,4.9-0.1,8.8,2.2,11.5c1.8,2.1,4.5,3.2,8.4,3.2c3.2,0,5.3-0.8,6-1.2c0.3-0.2,0.4-0.5,0.4-0.8
		c0-0.3-0.4-2.2-0.4-2.6C682.8,330.6,682.5,330.5,682.1,330.7 M694.3,306.4c0,0,0,27.5,0,27.8c0,0.3-0.2,0.6-0.6,0.6
		c-0.4,0-2.8,0-3.2,0c-0.4,0-0.5-0.4-0.5-0.6c0-0.3,0-61.2,0-61.3c0-0.2,0.3-0.6,0.7-0.8c0.4-0.1,2.7-0.9,3.1-1
		c0.3-0.1,0.6,0.1,0.6,0.5c0,0.2,0,27.5,0,27.5s4.4-8.6,15.6-8.6c5.2,0,9.8,1.8,12.6,5.3c2.9,3.7,3.3,8.2,3.2,14.2
		c0,0,0,23.8,0,24.1c0,0.3-0.2,0.6-0.6,0.6c-0.4,0-2.7,0-3.2,0c-0.4,0-0.6-0.3-0.6-0.6c0-0.2,0-24,0-24c0.1-6.2-0.5-9.2-2.7-12
		c-1.6-2-4.7-3.9-8.8-3.9C697.6,294.3,694.3,306.4,694.3,306.4"/>
	<path class="st3" d="M548.3,272c0-0.3-0.3-0.6-0.7-0.5c-0.3,0.1-2.7,0.8-3.1,0.9c-0.5,0.1-0.6,0.5-0.6,0.7c0,0.2,0,26.5,0,26.5
		h-37.2c0,0,0-27.4,0-27.5c0-0.3-0.3-0.6-0.7-0.5c-0.3,0.1-2.7,0.8-3.1,0.9c-0.5,0.1-0.6,0.5-0.6,0.7c0,0.2,0,61.3,0,61.3
		c0,0.4,0.3,0.6,0.6,0.6c0.2,0,3,0,3.2,0c0.3,0,0.6-0.3,0.6-0.6l0-30.4H544l0,30.4c0,0.4,0.3,0.6,0.6,0.6c0.2,0,3,0,3.2,0
		c0.3,0,0.6-0.3,0.6-0.6C548.3,334.6,548.3,272,548.3,272z"/>
</g>
</svg>
