<?xml version="1.0" encoding="utf-8"?>
<!-- Generator: Adobe Illustrator 24.3.0, SVG Export Plug-In . SVG Version: 6.00 Build 0)  -->
<svg version="1.1" id="Layer_1" xmlns="http://www.w3.org/2000/svg" xmlns:xlink="http://www.w3.org/1999/xlink" x="0px" y="0px"
	 viewBox="0 0 512 512" style="enable-background:new 0 0 512 512;" xml:space="preserve">
<style type="text/css">
	.st0{fill:#0982C6;}
	.st1{fill:#F8971F;}
	.st2{fill:#56B948;}
</style>
<g id="XMLID_48_">
	<path id="XMLID_55_" class="st0" d="M167.91,136.92c8.48,0,63.49,24.28,63.49,111.47c0,41.69-14.04,76.36-22.24,76.36
		c-3.66,0-4.97-3.66-4.97-10.68c0-15.36,5.41-29.11,5.41-62.03c0-63.49-26.19-89.23-37.89-103.57c-3.51-4.24-6.14-7.02-6.14-9.51
		C165.43,137.95,166.16,136.92,167.91,136.92 M306.45,138.97c0,2.49-2.63,5.27-6.14,9.51c-11.7,14.48-37.89,40.08-37.89,103.57
		c0,32.91,5.41,46.52,5.41,62.03c0,7.02-1.32,10.68-4.97,10.68c-8.34,0-22.24-34.67-22.24-76.36c0-87.19,55-111.47,63.49-111.47
		C305.71,136.92,306.45,137.95,306.45,138.97"/>
	<path id="XMLID_56_" class="st1" d="M215.89,154.48c0,11.41,8.92,20.63,20.04,20.63c11.12,0,20.04-9.22,20.04-20.63
		s-8.92-20.63-20.04-20.63C224.82,133.85,215.89,143.07,215.89,154.48"/>
	<path id="XMLID_84_" class="st2" d="M131.63,121.86c-10.53-4.68-18.29-14.19-19.6-23.55c7.75-5.12,20.04-5.56,30.57-0.73
		c10.97,4.97,13.6,13.31,13.6,20.77C150.65,123.17,142.61,126.83,131.63,121.86 M161.77,66.41c-6.73-10.39-8.34-23.55-4.1-32.62
		c9.95-0.15,21.36,6.73,28.09,16.97c7.02,10.83,4.53,19.89,0.29,26.62C178.15,78.7,168.79,77.24,161.77,66.41 M177.42,121.42
		c-8.34-7.02-13.02-17.7-11.7-26.48c8.48-2.63,19.75,0.15,28.09,7.31c8.78,7.46,8.92,15.65,7.02,22.53
		C194.24,127.56,186.05,128.73,177.42,121.42 M202.88,94.79c-3.51-11.56-1.61-24.43,4.83-31.89c9.51,2.49,18.43,12,21.94,23.55
		c3.8,12.14-1.02,20.04-6.88,25.16C215.02,110.74,206.53,106.93,202.88,94.79 M158.99,179.35c-8.34,1.61-16.97-0.73-21.8-5.71
		c2.49-6.44,9.65-11.85,17.99-13.46c8.63-1.76,13.75,2.19,16.97,6.73C170.98,172.18,167.62,177.74,158.99,179.35 M137.05,154.77
		c-9.51-1.02-17.99-6.44-21.5-13.31c4.83-6,14.34-9.51,23.84-8.48c9.95,1.02,14.04,7.02,16.09,12.73
		C152.26,150.97,146.99,155.94,137.05,154.77 M136.17,84.7c-7.46-6.29-11.56-15.8-10.53-23.55c7.46-2.34,17.55,0.15,25.01,6.44
		c7.75,6.58,7.9,14.04,6.29,20.04C151.24,90.11,143.92,91.14,136.17,84.7 M186.78,34.82c-2.93-9.65-1.32-20.33,3.95-26.62
		c7.9,2.19,15.36,10.09,18.29,19.6c3.07,10.09-0.88,16.68-5.71,21.07C196.88,47.98,189.86,44.91,186.78,34.82 M62.59,285.26
		c0,0.29,0.15,0.44,0.44,0.44c0.29,0,0.88-0.29,1.46-0.44c29.7-10.68,73.44-23.7,134.88-27.65c0-0.59,0.44-3.36,0.44-5.41
		c0-4.39-0.59-9.07-0.73-9.8c-63.05,5.71-106.5,23.99-135.02,41.55C63.03,284.53,62.59,284.82,62.59,285.26 M315.66,118.35
		c0-7.31,2.63-15.8,13.6-20.77c10.53-4.68,22.82-4.39,30.57,0.73c-1.32,9.22-9.07,18.72-19.6,23.55
		C329.27,126.83,321.22,123.17,315.66,118.35 M285.82,77.53c-4.24-6.73-6.73-15.8,0.29-26.62c6.73-10.39,18.14-17.12,28.09-16.97
		c4.24,9.07,2.63,22.24-4.1,32.62C303.08,77.24,293.72,78.7,285.82,77.53 M271.19,124.64c-1.9-6.73-1.76-15.07,7.02-22.53
		c8.34-7.02,19.6-9.95,28.09-7.31c1.17,8.78-3.51,19.46-11.85,26.48C285.82,128.73,277.48,127.56,271.19,124.64 M249.1,111.76
		c-5.71-5.27-10.53-13.02-6.88-25.16c3.51-11.56,12.43-21.07,21.94-23.55c6.44,7.46,8.34,20.33,4.83,31.89
		C265.19,106.93,256.85,110.74,249.1,111.76 M299.57,166.77c3.22-4.39,8.34-8.34,16.97-6.73c8.34,1.61,15.51,7.02,17.99,13.46
		c-4.68,4.97-13.46,7.31-21.8,5.71C304.1,177.74,300.89,172.18,299.57,166.77 M316.39,145.7c1.9-5.85,6.14-11.7,16.09-12.73
		c9.51-1.02,19.02,2.49,23.84,8.48c-3.36,6.88-12,12.29-21.36,13.31C324.88,155.94,319.46,150.97,316.39,145.7 M314.93,87.48
		c-1.61-6-1.46-13.46,6.29-20.04c7.46-6.29,17.41-8.78,25.01-6.44c1.17,7.75-3.07,17.26-10.53,23.55
		C327.8,91.14,320.49,90.11,314.93,87.48 M268.56,48.86c-4.83-4.39-8.92-10.97-5.71-21.07c2.93-9.65,10.39-17.55,18.29-19.6
		c5.41,6.14,7.02,16.97,4.1,26.62C282.02,44.91,274.99,47.98,268.56,48.86 M407.53,283.94C379,266.39,335.56,248.1,272.51,242.4
		c-0.15,0.73-0.73,5.41-0.73,9.8c0,2.05,0.29,4.83,0.44,5.41c61.44,3.95,105.18,16.97,134.88,27.65c0.59,0.15,1.17,0.44,1.46,0.44
		c0.29,0,0.59-0.15,0.59-0.44C409.28,284.82,408.7,284.53,407.53,283.94 M235.94,59.1c-8.19-3.8-16.24-10.83-16.24-25.6
		c0-14.04,6.58-27.5,16.24-33.5c9.65,6,16.24,19.46,16.24,33.5C252.17,48.27,244.13,55.3,235.94,59.1"/>
	<path id="XMLID_93_" class="st0" d="M125.93,360.89c0,7.17,5.85,13.02,13.17,13.02s13.17-5.85,13.17-13.02s-5.85-13.02-13.17-13.02
		C131.78,347.87,125.93,353.72,125.93,360.89 M229.06,429.2c0,20.48-8.05,28.96-19.6,28.96c-11.7,0-18.29-9.95-18.29-27.36
		c0-17.7,10.24-32.48,28.96-32.48c3.95,0,6.58,0.44,8.92,0.88L229.06,429.2L229.06,429.2z M230.23,462.85v6.73
		c0,18.29-11.26,25.31-25.16,25.31c-12.58,0-21.8-3.8-24.72-4.83v18.14c2.34,0.59,12.58,3.8,27.06,3.8
		c25.89,0,43.01-10.68,43.01-47.25V385.9c-3.36-0.88-15.51-4.1-29.4-4.1c-36.28,0-51.79,24.28-51.79,50.47
		c0,24.14,12.14,43.01,35.4,43.01c15.36,0,22.67-9.22,25.16-12.73h0.44V462.85z M107.06,451.73c-5.85,2.78-15.07,4.53-24.14,4.53
		c-24.58,0-42.57-17.55-42.57-44.32c0-26.62,17.99-44.32,42.57-44.32c12.29,0,20.92,2.93,24.14,4.53v-19.16
		c-5.41-2.05-14.04-3.95-26.33-3.95c-38.18,0-63.78,26.33-63.78,63.05c0,34.67,23.55,62.9,63.78,62.9c11.7,0,20.63-1.9,26.33-3.95
		V451.73z M430.5,429.2c0,20.48-8.05,28.96-19.6,28.96c-11.7,0-18.29-9.95-18.29-27.36c0-17.7,10.24-32.48,28.96-32.48
		c3.8,0,6.58,0.44,8.92,0.88V429.2z M454.49,473.53c-0.73-4.97-2.63-18.14-2.63-29.55V385.9c-3.36-0.88-15.51-4.1-29.4-4.1
		c-36.28,0-51.79,24.28-51.79,50.47c0,24.14,12.14,43.01,35.4,43.01c16.97,0,24.58-10.97,27.5-16.82h0.59
		c0.15,2.78,1.02,12.29,1.17,14.92h19.16V473.53z M149.77,384.29h-21.36v89.38h21.36V384.29z M274.7,473.53v-61.88
		c0-8.34-0.73-24.14-1.02-27.79h19.16l0.88,12.58h0.44c2.19-3.51,9.36-14.63,26.19-14.63c20.19,0,31.45,14.92,31.45,33.35v58.22
		h-21.36V419.4c0-11.41-6.29-20.04-17.26-20.04c-11.26,0-17.26,9.07-17.26,20.04v53.98H274.7V473.53z"/>
	<path id="XMLID_98_" class="st0" d="M485.79,458.17c-0.59-0.29-1.46-0.44-2.63-0.44h-1.9v4.53h1.9c0.88,0,1.61,0,2.05-0.29
		c0.88-0.29,1.32-1.02,1.32-1.9C486.67,459.19,486.38,458.46,485.79,458.17 M483.45,456.27c1.46,0,2.63,0.15,3.36,0.44
		c1.32,0.59,1.9,1.61,1.9,3.07c0,1.17-0.44,1.9-1.17,2.49c-0.44,0.29-1.02,0.44-1.76,0.59c1.02,0.15,1.61,0.59,2.19,1.17
		c0.44,0.59,0.73,1.32,0.73,1.9v0.88c0,0.29,0,0.59,0,0.88c0,0.29,0,0.59,0.15,0.59v0.15h-2.05v-0.15v-0.15v-0.44v-1.02
		c0-1.46-0.44-2.34-1.17-2.78c-0.44-0.29-1.32-0.44-2.49-0.44h-1.76v4.83h-2.19v-12.43h4.24V456.27z M476.87,455.68
		c-1.9,1.9-2.78,4.24-2.78,6.88c0,2.63,0.88,4.97,2.78,6.88c1.9,1.9,4.24,2.93,6.88,2.93c2.63,0,4.97-1.02,6.88-2.93
		c1.9-1.9,2.78-4.24,2.78-6.88c0-2.63-0.88-4.97-2.78-6.88c-1.9-1.9-4.24-2.93-6.88-2.93S478.77,453.78,476.87,455.68
		 M491.64,470.45c-2.19,2.19-4.83,3.36-8.05,3.36s-5.85-1.17-7.9-3.36c-2.19-2.19-3.22-4.83-3.22-8.05c0-3.07,1.17-5.71,3.36-7.9
		c2.19-2.19,4.83-3.36,7.9-3.36c3.07,0,5.85,1.17,8.05,3.36c2.19,2.19,3.36,4.83,3.36,7.9
		C495.01,465.63,493.84,468.26,491.64,470.45"/>
</g>
</svg>
