<?xml version="1.0" encoding="utf-8"?>
<!-- Generator: Adobe Illustrator 26.5.0, SVG Export Plug-In . SVG Version: 6.00 Build 0)  -->
<svg version="1.1" id="Layer_1" xmlns="http://www.w3.org/2000/svg" xmlns:xlink="http://www.w3.org/1999/xlink" x="0px" y="0px"
	 viewBox="0 0 512 512" style="enable-background:new 0 0 512 512;" xml:space="preserve">
<style type="text/css">
	.st0{fill:#87C546;}
</style>
<g id="XMLID_1_">
	<path id="XMLID_2_" class="st0" d="M512,296.54c0,4.98-3.87,8.99-8.86,8.99s-8.86-4.01-8.86-8.99s3.87-8.99,8.86-8.99
		S512,291.56,512,296.54 M496.22,296.54c0,4.29,3.04,7.47,7.06,7.47c4.01,0,7.06-3.18,7.06-7.47c0-4.15-3.04-7.47-6.92-7.47
		C499.27,289.07,496.22,292.39,496.22,296.54 M503.01,291.7c2.35,0,4.01,0.69,4.01,2.77c0,1.52-0.69,2.49-1.94,3.04l0.55,0.97
		c0.42,0.83,1.11,1.66,1.8,2.63c0.14,0.14-0.14,0.28-0.69,0.28h-0.55c-0.55,0-0.69-0.14-0.83-0.28c-0.55-0.69-0.97-1.38-1.25-1.94
		l-0.83-1.52h-1.25v3.46c0,0.14-0.14,0.28-0.55,0.28h-0.83c-0.42,0-0.55-0.14-0.55-0.28v-9.55h2.91V291.7z M501.76,296.13h1.38
		c1.38,0,1.94-0.69,1.94-1.52c0-1.25-1.11-1.38-2.08-1.38h-1.25V296.13z M135.06,229.85c-1.38,0-2.77,1.11-2.77,2.77v56.74
		c-4.29,0.97-8.72,1.52-13.01,1.52c-9.82,0-13.28-3.6-13.28-14.25v-43.87c0-1.8-1.38-2.77-2.63-2.77H88.42v46.77
		c0,22,11.62,29.06,30.3,29.06c14.94,0,29.89-4.29,31.14-4.7v-71.13h-14.81V229.85z M363.1,304.85c1.38,0,2.77-1.11,2.77-2.77
		v-57.15c4.29-0.97,8.72-1.52,13.01-1.52c9.82,0,13.28,3.6,13.28,14.25v44.42c0,1.8,1.38,2.77,2.63,2.77h14.94v-47.33
		c0-22-11.62-29.06-30.3-29.06c-14.94,0-29.89,4.29-31.14,4.7v71.68H363.1z M303.6,228.6c-19.37,0-31.55,10.52-31.55,32.93v11.21
		c0,24.91,13.15,32.93,27.54,32.93c7.06,0,14.25-4.98,16.61-8.03v4.7c0,1.25,1.11,2.63,2.63,2.63h14.94v-71.96
		C333.63,232.89,318.96,228.6,303.6,228.6 M316.19,286.58c-3.18,2.77-5.81,4.43-12.59,4.7c-9.82,0-13.98-5.95-13.98-18.82v-10.38
		c0-14.67,5.4-18.68,13.98-18.68c7.2,0,11.21,0.55,12.59,0.83V286.58z M453.6,228.6c-19.37,0-31.55,10.52-31.55,32.93v11.21
		c0,24.91,13.15,32.93,27.54,32.93c7.06,0,14.25-4.98,16.61-8.03v4.7c0,1.25,1.11,2.63,2.63,2.63h14.94v-71.96
		C483.77,232.89,469.1,228.6,453.6,228.6 M466.2,286.58c-3.18,2.77-5.81,4.43-12.59,4.7c-9.82,0-13.98-5.95-13.98-18.82v-10.38
		c0-14.67,5.4-18.68,13.98-18.68c7.2,0,11.21,0.55,12.59,0.83V286.58z M0,304.85h15.78c1.25,0,2.63-1.11,2.63-2.63V260.7h29.06
		c4.84,0,8.44,3.87,8.44,7.89v33.49c0,1.38,1.25,2.63,2.63,2.63h15.78v-98.53H58.53c-1.38,0-2.63,1.11-2.63,2.49v37.09H25.6
		c-4.01,0-7.2-3.32-7.2-7.06v-30.03c0-0.97-0.97-2.49-2.63-2.49H0V304.85z M233.03,228.6c-8.3,0-16.19,3.18-19.79,5.67
		c-5.4-4.01-12.73-5.67-21.86-5.67c-13.84,0-25.18,4.29-26.98,4.98v71.4h14.94c1.52,0,2.63-1.25,2.63-2.77v-57.43
		c3.18-0.83,6.09-1.25,8.58-1.25c10.24,0,12.73,4.15,12.73,14.25v44.42c0,1.25,0.97,2.77,2.63,2.77h12.32
		c1.66,0,2.63-1.25,2.63-2.77v-55.21c2.77-2.35,6.64-3.46,10.24-3.46c7.89,0,11.21,3.6,11.21,13.28v45.39
		c0,1.25,0.83,2.77,2.63,2.77h14.81v-50.51C259.87,235.1,247.97,228.6,233.03,228.6"/>
</g>
</svg>
